<?xml version="1.0" encoding="utf-8"?>
<!-- Generator: Adobe Illustrator 23.0.0, SVG Export Plug-In . SVG Version: 6.00 Build 0)  -->
<svg version="1.1" id="图层_1" xmlns="http://www.w3.org/2000/svg" xmlns:xlink="http://www.w3.org/1999/xlink" x="0px" y="0px"
	 viewBox="0 0 280 280" style="enable-background:new 0 0 280 280;" xml:space="preserve">
<style type="text/css">
	.st0{fill:#0086FF;}
	.st1{fill:#01D5D2;}
</style>
<g>
	<path class="st0" d="M112.14,195.57l-42.32-42.32c-7.31-7.31-7.31-19.19,0-26.5L140,56.57l0.04,0.04l28.29-28.29L140,0L41.53,98.47
		c-22.94,22.94-22.94,60.13,0,83.07l42.32,42.32L112.14,195.57z"/>
	<polygon class="st1" points="140,223.43 140,223.43 140,223.43 111.71,251.71 140,280 168.29,251.71 	"/>
	<path class="st0" d="M167.91,84.48l42.27,42.27c7.31,7.31,7.31,19.19,0,26.5l-42.32,42.32l28.29,28.29l42.32-42.32
		c22.94-22.94,22.94-60.13,0-83.07l-42.27-42.27L167.91,84.48z"/>
	
		<rect x="113.48" y="102.79" transform="matrix(0.7071 -0.7071 0.7071 0.7071 -40.5842 147.603)" class="st0" width="88.8" height="40"/>
</g>
</svg>
